<?xml version="1.0" encoding="UTF-8"?>
<svg width="936px" height="1127px" viewBox="0 0 936 1127" version="1.1" xmlns="http://www.w3.org/2000/svg" xmlns:xlink="http://www.w3.org/1999/xlink">
    <!-- Generator: Sketch 51.3 (57544) - http://www.bohemiancoding.com/sketch -->
    <title>productDetail</title>
    <desc>Created with Sketch.</desc>
    <defs></defs>
    <g id="Page-1" stroke="none" stroke-width="1" fill="none" fill-rule="evenodd">
        <g id="productDetail" fill-rule="nonzero">
            <rect id="Rectangle-25-Copy" fill="#E0EBF6" x="0" y="0" width="509" height="454"></rect>
            <rect id="Rectangle-25-Copy-2" fill="#E0EBF6" x="0" y="553" width="217" height="163"></rect>
            <rect id="Rectangle-25-Copy-6" fill="#E0EBF6" x="0" y="818" width="60" height="60"></rect>
            <rect id="Rectangle-25-Copy-8" fill="#E0EBF6" x="0" y="983" width="60" height="60"></rect>
            <rect id="Rectangle-25-Copy-7" fill="#E0EBF6" x="0" y="902" width="60" height="60"></rect>
            <rect id="Rectangle-25-Copy-9" fill="#E0EBF6" x="0" y="1067" width="60" height="60"></rect>
            <rect id="Rectangle-26-Copy-3" fill="#E0EBF6" x="70" y="818" width="827" height="12"></rect>
            <rect id="Rectangle-26-Copy-11" fill="#E0EBF6" x="70" y="983" width="827" height="12"></rect>
            <rect id="Rectangle-26-Copy-8" fill="#E0EBF6" x="70" y="902" width="827" height="12"></rect>
            <rect id="Rectangle-26-Copy-12" fill="#E0EBF6" x="70" y="1067" width="827" height="12"></rect>
            <rect id="Rectangle-26-Copy-3" fill="#E0EBF6" x="70" y="838" width="767" height="12"></rect>
            <rect id="Rectangle-26-Copy-13" fill="#E0EBF6" x="70" y="1003" width="767" height="12"></rect>
            <rect id="Rectangle-26-Copy-9" fill="#E0EBF6" x="70" y="922" width="767" height="12"></rect>
            <rect id="Rectangle-26-Copy-14" fill="#E0EBF6" x="70" y="1087" width="767" height="12"></rect>
            <rect id="Rectangle-26-Copy-3" fill="#E0EBF6" x="70" y="858" width="319" height="12"></rect>
            <rect id="Rectangle-26-Copy-15" fill="#E0EBF6" x="70" y="1023" width="319" height="12"></rect>
            <rect id="Rectangle-26-Copy-10" fill="#E0EBF6" x="70" y="942" width="319" height="12"></rect>
            <rect id="Rectangle-26-Copy-16" fill="#E0EBF6" x="70" y="1107" width="319" height="12"></rect>
            <rect id="Rectangle-25-Copy-4" fill="#E0EBF6" x="479.333333" y="553" width="217" height="163"></rect>
            <rect id="Rectangle-25-Copy-3" fill="#E0EBF6" x="239.666667" y="553" width="217" height="163"></rect>
            <rect id="Rectangle-25-Copy-5" fill="#E0EBF6" x="719" y="553" width="217" height="163"></rect>
            <rect id="Rectangle-26-Copy" fill="#B3D1EF" x="537" y="0" width="399" height="30"></rect>
            <rect id="Rectangle-26-Copy-2" fill="#B3D1EF" x="0" y="507" width="936" height="30"></rect>
            <rect id="Rectangle-26-Copy-7" fill="#B3D1EF" x="0" y="772" width="936" height="30"></rect>
            <rect id="Rectangle-26-Copy-3" fill="#E0EBF6" x="537" y="54" width="389" height="12"></rect>
            <rect id="Rectangle-26-Copy-4" fill="#E0EBF6" x="537" y="115" width="169" height="12"></rect>
            <rect id="Rectangle-26-Copy-3" fill="#E0EBF6" x="537" y="74" width="339" height="12"></rect>
            <rect id="Rectangle-26-Copy-5" fill="#E0EBF6" x="537" y="135" width="259" height="12"></rect>
            <rect id="Rectangle-26-Copy-6" fill="#E0EBF6" x="537" y="155" width="319" height="12"></rect>
            <rect id="Rectangle-26-Copy-3" fill="#B3D1EF" x="537" y="346" width="188" height="30"></rect>
            <rect id="Rectangle-27-Copy" fill="#4A90E2" x="537" y="397" width="188" height="57"></rect>
        </g>
    </g>
</svg>